<svg width="50" height="50" viewBox="0 0 32 32" fill="none" xmlns="http://www.w3.org/2000/svg">
<path d="M15.9821 28.2283C0.247118 28.1359 -2.1609 6.98057 14.1736 1L15.4797 2.67456C29.9813 1.21296 36.3125 22.6257 16.4844 31.0416L15.9821 28.2283Z" fill="none" stroke="currentColor"/>
<path d="M17.8241 6.3584L20.3025 6.65982C19.3437 10.7227 18.031 12.138 14.8769 13.76C15.9894 13.6724 16.71 13.5119 17.3217 13.3581C17.9335 13.2042 19.4196 12.4681 19.9341 13.76C20.4485 15.0518 19.3956 15.902 18.6949 16.0039L12.8339 16.8077C11.5715 16.8558 10.6934 18.1781 11.2263 19.0851C11.7593 19.992 13.7047 19.6209 13.7047 19.6209L16.8529 19.0851C13.5273 20.9014 12.2153 22.3847 11.5278 26.4196" stroke="currentColor"/>
</svg>
